PathFileType	4	(X/Y/Z)	C:\Users\dbl\Desktop\LZH\BX\bx_y_5_901.trc
DataRate	CameraRate	NumFrames	NumMarkers	Units	OrigDataRate	OrigDataStartFrame	OrigNumFrames
50.00	50.00	      4	43	mm	50.00	196	      1562
Frame#	Time	Top.Head			R.Acromium			L.Acromium			Sternum			R.ASIS			L.ASIS			V.Sacral			R.Thigh.Upper			R.Thigh.Front			R.Thigh.Rear			R.Knee.Lat			R.Knee.Med			R.Shank.Upper			R.Shank.Front			R.Shank.Rear			R.Ankle.Lat			R.Midfoot.Lat			R.Toe.Lat			R.Toe.Tip			R.Toe.Med			R.Ankle.Med			R.Midfoot.Sup			R.Heel			L.Thigh.Upper			L.Thigh.Front			L.Thigh.Rear			L.Knee.Lat			L.Knee.Med			L.Shank.Upper			L.Shank.Front			L.Shank.Rear			L.Ankle.Lat			L.Midfoot.Lat			L.Toe.Lat			L.Toe.Tip			L.Toe.Med			L.Ankle.Med			L.Midfoot.Sup			L.Heel			origin1 front left			origin2 front right			origin 3 back right			origin 4 back leftt			
		X1	Y1	Z1	X2	Y2	Z2	X3	Y3	Z3	X4	Y4	Z4	X5	Y5	Z5	X6	Y6	Z6	X7	Y7	Z7	X8	Y8	Z8	X9	Y9	Z9	X10	Y10	Z10	X11	Y11	Z11	X12	Y12	Z12	X13	Y13	Z13	X14	Y14	Z14	X15	Y15	Z15	X16	Y16	Z16	X17	Y17	Z17	X18	Y18	Z18	X19	Y19	Z19	X20	Y20	Z20	X21	Y21	Z21	X22	Y22	Z22	X23	Y23	Z23	X24	Y24	Z24	X25	Y25	Z25	X26	Y26	Z26	X27	Y27	Z27	X28	Y28	Z28	X29	Y29	Z29	X30	Y30	Z30	X31	Y31	Z31	X32	Y32	Z32	X33	Y33	Z33	X34	Y34	Z34	X35	Y35	Z35	X36	Y36	Z36	X37	Y37	Z37	X38	Y38	Z38	X39	Y39	Z39	X40	Y40	Z40	X41	Y41	Z41	X42	Y42	Z42	X43	Y43	Z43	

196	3.900	-96.50775	253.53513	1202.56494	-228.17010	51.94597	1091.88501	-292.77444	414.42816	984.21136	-397.79370	247.53755	1110.75403	-770.07477	134.42741	1035.55688	-717.60779	386.59988	988.96979	-915.83728	264.05377	1065.29736	-777.74188	93.99796	864.68896	-720.53809	150.20166	821.27087	-806.07166	88.44796	717.24963	-774.31171	123.18539	585.94983	-748.01251	230.52466	546.09674	-790.20386	122.00948	520.13409	-710.37732	171.77397	542.77264	-807.44531	122.69997	445.87711	-694.76404	139.84360	210.99936	-613.81366	79.96651	165.30772	-569.24133	54.18125	162.69907	-493.00989	99.99430	163.07106	-531.88086	148.96423	165.43640	-645.97473	213.84206	226.47708	-594.17670	188.52818	175.79301	-719.13348	209.55975	171.57468	-753.42242	441.54016	856.96136	-709.49829	378.11536	813.10596	-789.59637	457.64203	724.53546	-782.49225	424.83817	603.71552	-740.18158	314.95380	559.27740	-772.02637	420.96274	545.00281	-716.05200	375.37369	536.39801	-807.15204	430.88864	481.62451	-685.59027	424.72604	211.76900	-581.46729	468.24826	165.20909	-541.81519	476.84375	159.62662	-482.16861	425.84778	166.54678	-525.77008	386.59830	176.30052	-650.87964	332.91241	211.27875	-595.79456	349.70483	173.16173	-731.69934	351.08453	165.10522	-443.85165	448.62378	146.40482	-450.78998	75.40896	144.43787	-806.29919	82.67571	142.63466	-799.86566	458.03604	145.88882	
197	3.920	-98.64636	253.32817	1205.51733	-230.63480	52.15425	1094.78394	-294.13339	414.90936	986.81268	-398.70291	247.37306	1112.10193	-769.48962	134.47037	1035.41663	-717.92682	386.88620	989.34161	-917.11499	264.44409	1064.77014	-778.53754	94.42171	864.60748	-721.26453	150.69331	821.10962	-806.64612	88.78876	717.07385	-774.75684	123.44479	585.81549	-748.43665	230.75705	545.90338	-790.54883	122.19554	519.93512	-710.76923	171.96439	542.68121	-807.76569	122.85646	445.67496	-694.76715	139.92198	210.98004	-613.82361	79.95497	165.42159	-569.23633	54.21379	162.72519	-493.03720	99.98341	163.05260	-531.90326	148.98245	165.41830	-646.09637	213.92207	226.27965	-594.13770	188.41487	176.00479	-719.21509	209.63818	171.39346	-754.26794	441.86310	856.98480	-710.25989	378.43494	813.16571	-790.22180	458.10590	724.54376	-783.18707	425.07568	603.56531	-740.77075	315.24042	559.25073	-772.62866	421.22836	544.80139	-716.61298	375.64709	536.33563	-807.65814	431.08145	481.35028	-685.63916	424.75275	211.71158	-581.41498	468.29495	165.13249	-541.82593	476.83954	159.65726	-482.16849	425.84201	166.55219	-525.78516	386.62543	176.30977	-651.16541	333.13138	211.15149	-595.78473	349.74448	173.17526	-731.73242	351.12997	165.09453	-443.85751	448.60852	146.39339	-450.79166	75.42606	144.40691	-806.30548	82.68255	142.62253	-799.86401	458.05399	145.88609	
198	3.940	-100.78290	253.15070	1208.95679	-233.28027	52.37110	1097.96240	-295.54443	415.36050	989.86475	-399.66846	247.22224	1113.59033	-768.79834	134.53558	1035.28198	-718.17529	387.16208	989.79419	-918.41785	264.76270	1064.15356	-779.27521	94.78407	864.56464	-721.94531	151.13150	820.97235	-807.19067	89.06548	716.93982	-775.20972	123.66672	585.67493	-748.87952	230.93561	545.70746	-790.91998	122.32706	519.74896	-711.16675	172.12469	542.57520	-808.08636	122.96706	445.45428	-694.79443	139.97037	210.94006	-613.86017	79.90429	165.53943	-569.23657	54.24911	162.73862	-493.06009	99.98379	163.04419	-531.92743	148.98933	165.41040	-646.22644	213.98413	226.08569	-594.10919	188.28503	176.23682	-719.29407	209.72375	171.19530	-755.08893	442.13205	857.03217	-710.98669	378.70407	813.24677	-790.81299	458.51294	724.56207	-783.84949	425.25305	603.40839	-741.31146	315.51987	559.21039	-773.19861	421.45612	544.59375	-717.14050	375.92844	536.28210	-808.14404	431.24326	481.09045	-685.70392	424.77451	211.64246	-581.37860	468.33853	165.03506	-541.85657	476.83890	159.71881	-482.17398	425.83365	166.56319	-525.80597	386.66403	176.32239	-651.45599	333.35016	211.02370	-595.75549	349.80505	173.19023	-731.75433	351.14279	165.07336	-443.86655	448.59375	146.37874	-450.79428	75.45007	144.38066	-806.30786	82.68697	142.60861	-799.86414	458.07150	145.87814	
199	3.960	-102.90198	252.99573	1212.92822	-236.10510	52.59605	1101.41882	-296.99811	415.77014	993.38470	-400.69009	247.08562	1115.21899	-768.00031	134.62364	1035.15332	-718.35046	387.42654	990.32928	-919.73181	265.01120	1063.45020	-779.94366	95.08240	864.56671	-722.57312	151.49721	820.88092	-807.70288	89.27434	716.86066	-775.67065	123.84372	585.53558	-749.32813	231.05928	545.52374	-791.32196	122.40233	519.58069	-711.57617	172.25505	542.45978	-808.41028	123.02761	445.23053	-694.85126	139.98621	210.87645	-613.92041	79.81628	165.65492	-569.24097	54.27958	162.74057	-493.07916	99.99502	163.04692	-531.95465	148.98148	165.41580	-646.36743	214.02328	225.90405	-594.10016	188.15309	176.46335	-719.36761	209.80545	170.99257	-755.87207	442.35184	857.10742	-711.67163	378.92758	813.34930	-791.35718	458.84906	724.59088	-784.47363	425.36435	603.24030	-741.80212	315.78699	559.16528	-773.72803	421.63751	544.38635	-717.63501	376.21094	536.23767	-808.60565	431.36902	480.85559	-685.78149	424.78937	211.56662	-581.36438	468.37930	164.92513	-541.90045	476.84525	159.79317	-482.18427	425.82581	166.58089	-525.83484	386.71484	176.33638	-651.74829	333.56702	210.89647	-595.70551	349.88770	173.20512	-731.76294	351.12039	165.04344	-443.87778	448.58151	146.36195	-450.79770	75.47771	144.36287	-806.30695	82.68813	142.59447	-799.86621	458.08926	145.86650	
